# xmcd CD database file
#
# Track frame offsets:
#	150
#	41312
#	79057
#	109480
#	151365
#	184837
#
# Disc length: 2908 seconds
#
# Revision: 1
# Processed by: cddbd v1.5.2PL0 Copyright (c) Steve Scherf et al.
# Submitted via: CDex 1.70beta2
#
DISCID=440b5a06
DTITLE=Shigeharu Mukai - Jazz Strings Disc 1
DYEAR=2004
DGENRE=Jazz
TTITLE0=Fluvio
TTITLE1=Samarkand
TTITLE2=Oblivion
TTITLE3=N.I.C.
TTITLE4=Wedding
TTITLE5=Norwegian Woods
EXTD=YEAR: 2004
EXTT0=
EXTT1=
EXTT2=
EXTT3=
EXTT4=
EXTT5=
PLAYORDER=
